<?xml version="1.0" standalone="no"?>
<!DOCTYPE svg PUBLIC "-//W3C//DTD SVG 1.1//EN" "http://www.w3.org/Graphics/SVG/1.1/DTD/svg11.dtd" >
<!--
2013-9-30: Created.
-->
<svg>
<metadata>
Created by iconfont
</metadata>
<defs>

<font id="iconfont" horiz-adv-x="1024" >
  <font-face
    font-family="iconfont"
    font-weight="500"
    font-stretch="normal"
    units-per-em="1024"
    ascent="896"
    descent="-128"
  />
    <missing-glyph />
    
    <glyph glyph-name="x" unicode="x" horiz-adv-x="1001"
d="M281 543q-27 -1 -53 -1h-83q-18 0 -36.5 -6t-32.5 -18.5t-23 -32t-9 -45.5v-76h912v41q0 16 -0.5 30t-0.5 18q0 13 -5 29t-17 29.5t-31.5 22.5t-49.5 9h-133v-97h-438v97zM955 310v-52q0 -23 0.5 -52t0.5 -58t-10.5 -47.5t-26 -30t-33 -16t-31.5 -4.5q-14 -1 -29.5 -0.5
t-29.5 0.5h-32l-45 128h-439l-44 -128h-29h-34q-20 0 -45 1q-25 0 -41 9.5t-25.5 23t-13.5 29.5t-4 30v167h911zM163 247q-12 0 -21 -8.5t-9 -21.5t9 -21.5t21 -8.5q13 0 22 8.5t9 21.5t-9 21.5t-22 8.5zM316 123q-8 -26 -14 -48q-5 -19 -10.5 -37t-7.5 -25t-3 -15t1 -14.5
t9.5 -10.5t21.5 -4h37h67h81h80h64h36q23 0 34 12t2 38q-5 13 -9.5 30.5t-9.5 34.5q-5 19 -11 39h-368zM336 498v228q0 11 2.5 23t10 21.5t20.5 15.5t34 6h188q31 0 51.5 -14.5t20.5 -52.5v-227h-327z" />
    

    
    <glyph glyph-name="gongjuxiang" unicode="&#58887;" d="M666.946 631.787v88.604c0.693 21.090-24.358 44.302-44.302 44.302l-243.659 0c-20.42 0-44.302-22.335-44.302-44.302v-88.604l-132.905-0c-33.097 0-66.452-35.313-66.452-66.451v-110.754h753.131l0 110.754c0 32.978-33.561 66.451-66.451 66.451h-155.059zM600.493 631.787h-199.357v44.302c0 13.444 8.762 22.15 22.15 22.15h155.055c13.38 0 22.15-8.707 22.15-22.15v-44.302zM511.025 322.477c43.632 0 45.167 53.624 45.167 87.803l-110.754-0c0.746-27.504 0.866-88.603 44.302-88.603 0 0 12.157 0.8 21.286 0.8zM600.493 410.28c0 0 35.109-132.905-99.689-132.905-139.179 0-99.668 132.905-99.668 132.905h-265.811v-310.112c0-34.027 29.873-66.452 66.452-66.452h620.226c33.27 0 66.451 28.663 66.451 66.452v310.112h-287.961z"  horiz-adv-x="1024" />

    
    <glyph glyph-name="duigou" unicode="&#58969;" d="M997.888 825.856C686.592 634.88 460.8 393.728 358.912 272.896l-248.832 195.072-110.08-88.576 429.568-437.248c73.728 189.44 308.224 559.616 594.432 822.784l-26.112 60.928m0 0z"  horiz-adv-x="1024" />

    
    <glyph glyph-name="dianjidakaigongjuxiang" unicode="&#59047;" d="M941.54752 676.63872c-15.21664-18.26816-39.58784-39.58784-76.10368-73.05216-39.58784-39.58784-94.35136-39.58784-133.91872 0-39.58784 39.56736-39.58784 94.35136 0 130.88768 36.51584 36.51584 73.03168 79.13472 73.03168 79.13472-103.48544 48.70144-231.34208 30.43328-316.55936-54.784-79.1552-79.13472-100.4544-188.7232-66.9696-289.1776L92.28288 140.92288a124.928 124.928 0 0 1 0-176.55808 124.928 124.928 0 0 1 176.55808 0l331.776 328.74496c97.42336-33.4848 210.04288-9.1136 289.15712 66.99008 82.20672 88.24832 100.47488 213.03296 51.77344 316.53888z m-97.40288-270.88896c-70.00064-70.02112-176.55808-82.20672-258.74432-36.53632L223.17056 10.01472a62.48448 62.48448 0 0 0-88.28928 0 62.52544 62.52544 0 0 0 0 88.28928l362.25024 359.17824c-45.6704 82.18624-33.50528 188.7232 36.51584 258.72384 42.5984 42.61888 97.40288 60.88704 152.18688 63.91808-57.81504-60.86656-57.81504-158.26944 3.05152-216.10496 60.86656-60.88704 155.2384-60.88704 216.12544-3.05152 0-57.83552-21.2992-112.61952-60.86656-155.21792z"  horiz-adv-x="1024" />

    
    <glyph glyph-name="zhuatu" unicode="&#59048;" d="M758.272 672.17408L224.31744 138.28096V672.17408h533.95456z m-493.38368-574.464l534.17984 534.13888v-534.13888H264.88832zM82.35008 671.98976c0.28672 0 0.512 0.18432 0.79872 0.18432h83.78368v-603.136c0-0.4096-0.16384-0.73728-0.14336-1.14688a28.8768 28.8768 0 0 1 29.96224-27.72992c0.28672 0 0.512 0.18432 0.79872 0.2048h601.45664v-86.016c0-0.43008-0.18432-0.73728-0.16384-1.16736a28.79488 28.79488 0 1 1 57.48736 1.10592v0.24576c0 0.28672 0.2048 0.55296 0.18432 0.9216 0 0.22528-0.12288 0.36864-0.16384 0.57344V40.3456H942.08c0.4096 0 0.77824-0.2048 1.2288-0.18432a28.91776 28.91776 0 1 1-1.06496 57.81504l-1.2288-0.04096c-0.3072-0.02048-0.512-0.2048-0.79872-0.2048h-83.84512V689.21344l77.16864 77.14816c5.7344 5.61152 8.88832 13.4144 8.6016 21.44256a28.8768 28.8768 0 0 1-29.98272 27.72992 28.672 28.672 0 0 1-20.45952-9.9328l-76.06272-76.0832H224.31744V815.57504c0 0.38912 0.2048 0.7168 0.2048 1.10592a28.75392 28.75392 0 0 1-57.50784-1.10592h-0.06144v-0.2048c0-0.32768-0.14336-0.59392-0.14336-0.9216 0-0.22528 0.14336-0.4096 0.14336-0.6144V729.4976h-85.6064c-0.43008 0-0.8192 0.26624-1.2288 0.22528a28.91776 28.91776 0 1 1 2.23232-57.73312z"  horiz-adv-x="1024" />

    
    <glyph glyph-name="dianyuandianshunxuzhuizong" unicode="&#59049;" d="M985.9072 319.87712a63.44704 63.44704 0 0 1-41.45152 48.82432l-73.91232 26.66496c-6.06208 224.60416-190.54592 405.504-416.60416 405.504C224.03072 800.8704 37.02784 613.86752 37.02784 384s187.02336-416.8704 416.89088-416.8704c19.61984 0 35.59424 15.99488 35.59424 35.59424a35.6352 35.6352 0 0 1-35.59424 35.59424c-190.62784 0-345.72288 155.0336-345.72288 345.66144s155.09504 345.7024 345.72288 345.7024c177.88928 0 324.77184-135.04512 343.61344-308.0192l-74.42432 26.84928a63.42656 63.42656 0 0 1-21.52448 3.76832 65.1264 65.1264 0 0 1-49.93024-23.63392 77.5168 77.5168 0 0 1-16.30208-62.83264l45.85472-220.18048c6.02112-33.52576 29.83936-55.99232 59.2896-55.99232 14.72512 0 29.30688 5.71392 42.0864 16.52736l176.90624 144.15872c20.84864 17.59232 30.96576 44.2368 26.4192 69.55008z m-72.82688-15.5648l-164.31104-133.95968-43.49952 208.83456 207.81056-74.87488z"  horiz-adv-x="1024" />

    
    <glyph glyph-name="kuangxuanchaxun" unicode="&#59050;" d="M944.88576 33.13664l-114.2784 114.25792a40.26368 40.26368 0 0 1-28.54912 11.776c-3.46112 0-6.79936-0.59392-10.07616-1.4336l-56.48384 56.48384a376.48384 376.48384 0 0 1 88.28928 242.52416c0 208.54784-169.65632 378.20416-378.18368 378.20416C237.056 834.9696 67.3792 665.2928 67.3792 456.74496c0-208.54784 169.6768-378.20416 378.20416-378.20416 87.26528 0 167.64928 29.7984 231.75168 79.64672l55.99232-55.99232a40.50944 40.50944 0 0 1 8.99072-43.08992l114.2784-114.23744c7.63904-7.59808 17.75616-11.79648 28.52864-11.79648s20.91008 4.1984 28.59008 11.81696l31.17056 31.15008a40.63232 40.63232 0 0 1 0 57.09824zM445.58336 754.176c163.98336 0 297.41056-133.4272 297.41056-297.43104s-133.4272-297.43104-297.41056-297.43104c-164.00384 0-297.43104 133.4272-297.43104 297.43104S281.6 754.176 445.58336 754.176z"  horiz-adv-x="1024" />

    
    <glyph glyph-name="dianyuandiannixuzhuizong" unicode="&#59051;" d="M64.49152 250.32704l176.90624-144.15872c12.77952-10.79296 27.36128-16.52736 42.0864-16.52736 29.45024 0 53.26848 22.48704 59.2896 55.99232l45.85472 220.18048a77.49632 77.49632 0 0 1-16.30208 62.83264 65.10592 65.10592 0 0 1-49.93024 23.63392c-7.33184 0-14.56128-1.26976-21.52448-3.76832l-74.42432-26.84928c18.8416 172.9536 165.74464 308.0192 343.61344 308.0192 190.62784 0 345.72288-155.09504 345.72288-345.7024 0-190.62784-155.09504-345.66144-345.72288-345.66144a35.6352 35.6352 0 0 1-35.59424-35.59424c0-19.59936 15.9744-35.59424 35.59424-35.59424 229.888 0 416.89088 187.00288 416.89088 416.8704 0 229.888-187.02336 416.89088-416.89088 416.89088-226.05824 0-410.54208-180.89984-416.60416-405.504l-73.91232-26.66496A63.42656 63.42656 0 0 1 38.0928 319.8976c-4.54656-25.33376 5.57056-51.97824 26.39872-69.57056z m254.23872 128.86016l-43.49952-208.83456-164.31104 133.95968 207.81056 74.87488z"  horiz-adv-x="1024" />

    
    <glyph glyph-name="biaozhu" unicode="&#59052;" d="M933.45792 141.80352H80.77312c-14.4384 0-26.17344-12.0832-26.17344-26.9312v-154.46016c0-14.88896 11.73504-26.99264 26.17344-26.99264h852.6848c14.4384 0 26.15296 12.12416 26.15296 26.99264v154.46016c0 14.848-11.71456 26.9312-26.15296 26.9312z m-785.65376-102.1952v50.76992h18.5344v-50.76992H200.704v50.76992h18.51392v-80.1792h34.304v80.1792h18.59584v-51.99872h34.304v51.99872h18.57536v-51.99872h34.32448v51.99872h18.57536v-80.77312h34.32448v80.77312h18.51392v-51.99872h34.32448v51.99872h18.55488v-51.99872h34.32448v51.99872h18.57536v-79.60576h34.32448v79.60576h18.57536v-51.15904h34.32448v51.15904h18.57536v-50.76992h34.32448v50.76992h18.57536v-79.21664h34.304v79.21664h18.51392v-50.5856h34.32448v50.5856h18.57536v-50.5856h34.32448v50.5856h18.57536v-79.872h34.304v79.872h21.52448v-105.472H104.5504v105.472h8.92928v-50.76992h34.32448zM550.23616 464.15872l3.62496-0.83968a103.85408 103.85408 0 0 0 49.99168-27.48416 103.75168 103.75168 0 0 0 27.50464-49.9712l0.83968-3.54304 3.62496-0.38912c1.00352-0.08192 2.00704-0.14336 2.99008-0.14336 7.18848 0 13.84448 2.70336 18.7392 7.59808l294.11328 294.13376c5.12 5.12 7.94624 11.89888 7.94624 19.12832s-2.82624 14.00832-7.94624 19.10784l-61.93152 61.89056a26.70592 26.70592 0 0 1-19.08736 7.94624c-7.24992 0-14.0288-2.82624-19.10784-7.92576l-294.0928-294.15424a26.8288 26.8288 0 0 1-7.51616-21.66784l0.3072-3.6864z m281.23136 222.98624l39.2192 39.19872 23.6544-23.71584-39.15776-39.17824-23.71584 23.69536zM614.72768 470.40512l194.00704 194.00704 23.71584-23.69536-193.98656-193.98656-23.73632 23.67488zM90.2144 169.92256h315.8016a26.17344 26.17344 0 0 1 0 52.38784H153.45664l113.74592 113.7664c4.95616 4.93568 7.68 11.53024 7.68 18.51392 0 7.02464-2.72384 13.57824-7.63904 18.47296a26.112 26.112 0 0 1-37.04832 0.02048L116.4288 259.2768V815.22688a26.17344 26.17344 0 0 1-52.38784 0v-619.15136c-0.04096-12.67712 9.15456-26.15296 26.17344-26.15296zM531.80416 269.312c32.23552 4.4032 46.94016 6.41024 69.07904 28.48768a95.6416 95.6416 0 0 1-0.02048 135.02464 95.00672 95.00672 0 0 1-67.52256 27.9552 94.8224 94.8224 0 0 1-67.4816-27.9552c-22.09792-22.09792-24.10496-36.82304-28.52864-69.20192l-0.08192-0.69632a843.10016 843.10016 0 0 0-18.98496-99.24608l-4.52608-17.98144 18.04288 4.5056a834.4576 834.4576 0 0 0 100.02432 19.10784z m1.536 148.09088c13.9264 0 26.99264-5.40672 36.84352-15.19616 20.2752-20.35712 20.2752-53.41184 0.02048-73.728-13.25056-13.23008-24.3712-14.45888-51.3024-17.408-12.22656-1.35168-27.09504-3.05152-46.12096-6.3488 3.39968 19.47648 5.05856 34.67264 6.30784 46.10048 3.01056 26.9312 4.25984 38.11328 17.44896 51.34336a51.75296 51.75296 0 0 0 36.80256 15.23712z"  horiz-adv-x="1024" />

    
    <glyph glyph-name="mianjiceju" unicode="&#59053;" d="M282.74688 99.69664h248.832a32.44032 32.44032 0 0 1 22.95808 55.45984l-248.832 248.832a32.80896 32.80896 0 0 1-35.40992 7.04512c-12.1856-5.05856-20.0704-16.83456-20.0704-30.02368v-248.832a32.44032 32.44032 0 0 1 32.52224-32.48128z m32.48128 64.98304v137.87136l137.89184-137.87136h-137.89184zM958.68928-16.71168L111.24736 830.73024a32.93184 32.93184 0 0 1-35.4304 7.0656 32.48128 32.48128 0 0 1-20.04992-30.04416v-847.44192c0-8.58112 3.46112-16.93696 9.50272-22.97856 6.0416-6.06208 14.4384-9.5232 22.97856-9.5232h847.4624a32.4608 32.4608 0 1 1 22.97856 55.48032z m-837.9392 9.48224V729.2928l736.50176-736.52224H120.75008z"  horiz-adv-x="1024" />

    
    <glyph glyph-name="quanping" unicode="&#59054;" d="M603.5456 811.19232c0-18.30912 12.20608-30.5152 30.5152-30.5152h231.89504L576.08192 490.8032c-12.20608-12.20608-12.20608-30.5152 0-42.72128s30.49472-12.20608 42.72128 0L908.67712 737.97632V506.0608c0-18.3296 12.22656-30.5152 30.5152-30.5152 18.3296 0 30.5152 12.20608 30.5152 30.5152V811.19232c0 18.3296-12.20608 30.5152-30.5152 30.5152H634.0608c-18.3296 0.02048-30.5152-12.1856-30.5152-30.5152z m-198.3488-491.27424L115.32288 30.02368V261.95968c0 18.28864-12.22656 30.49472-30.5152 30.49472-18.3296 0-30.5152-12.22656-30.5152-30.49472V-43.2128c0-18.30912 12.20608-30.49472 30.5152-30.49472H389.9392c18.30912 0 30.5152 12.20608 30.5152 30.49472 0 18.3296-12.22656 30.53568-30.5152 30.53568H158.02368l289.8944 289.85344c12.20608 12.22656 12.20608 30.53568 0 42.74176-9.15456 12.20608-30.5152 12.20608-42.72128 0z"  horiz-adv-x="1024" />

    
    <glyph glyph-name="piliangtianjiashebei" unicode="&#59055;" d="M512 835.91168C262.81984 835.91168 60.08832 633.18016 60.08832 384c0-249.20064 202.73152-451.91168 451.91168-451.91168 249.20064 0 451.91168 202.71104 451.91168 451.91168 0 249.18016-202.71104 451.91168-451.91168 451.91168z m0-851.51744C291.65568-15.60576 112.37376 163.65568 112.37376 384 112.37376 604.3648 291.65568 783.62624 512 783.62624c220.3648 0 399.62624-179.26144 399.62624-399.62624 0-220.34432-179.26144-399.60576-399.62624-399.60576zM538.29632 410.8288V648.25344h-52.59264V410.8288H247.21408v-52.61312h238.4896v-238.46912h52.59264V358.21568h238.4896V410.8288z"  horiz-adv-x="1024" />

    
    <glyph glyph-name="tucengguanli" unicode="&#59056;" d="M946.64704 348.2624l-389.24288-174.96064c-37.2736-16.19968-52.10112-16.19968-86.50752 0L81.65376 348.2624c-20.66432 10.9568-26.23488 51.58912-26.23488 73.74848a763.82208 763.82208 0 0 1 61.17376-30.55616l397.55776-183.25504 397.57824 183.25504c0.67584 0.18432 36.12672 18.04288 61.1328 30.55616 0-22.69184-7.02464-64.8192-26.2144-73.74848z m0 183.27552L557.40416 356.5568c-37.2736-16.19968-52.10112-16.19968-86.50752 0L81.65376 531.53792c-30.57664 16.22016-29.61408 67.31776 0 86.38464L470.89664 823.43936c34.38592 17.18272 55.9104 18.14528 86.50752 0l389.24288-205.5168c29.61408-16.22016 28.63104-73.03168 0-86.38464zM514.12992 788.56192L116.57216 574.73024l397.55776-167.50592 397.57824 167.50592L514.12992 788.56192z m0-763.67872l397.57824 183.296c0.65536 0.18432 36.12672 18.04288 61.1328 30.53568 0-22.67136-7.02464-64.77824-26.2144-73.74848l-389.24288-174.98112c-37.2736-16.22016-52.10112-16.22016-86.50752 0L81.65376 164.98688c-20.66432 10.97728-26.23488 51.58912-26.23488 73.74848 25.98912-14.848 62.52544-31.37536 61.17376-30.53568l397.53728-183.31648z"  horiz-adv-x="1024" />

    
    <glyph glyph-name="wailunkuo" unicode="&#59057;" d="M583.43424 88.51456l181.73952-95.5392c6.36928-3.33824 11.03872-4.77184 13.43488-4.9152-1.45408 0.08192-4.73088-0.77824-8.192-3.2768-3.4816-2.51904-5.3248-5.38624-5.71392-6.8608 0.59392 2.33472 0.69632 7.24992-0.53248 14.336l-34.67264 202.32192c-7.8848 45.83424 10.79296 103.40352 44.17536 135.94624l146.96448 143.29856c5.16096 5.0176 7.9872 9.0112 8.86784 11.264-0.512-1.37216-0.73728-4.75136 0.59392-8.82688 1.29024-4.096 3.4816-6.73792 4.75136-7.55712-2.048 1.31072-6.67648 2.88768-13.824 3.93216l-203.1616 29.4912c-45.99808 6.69696-95.0272 42.25024-115.63008 84.02944L511.36512 770.2528c-3.1744 6.4512-6.10304 10.36288-7.9872 11.89888 1.14688-0.94208 4.32128-2.17088 8.58112-2.17088 4.28032 0 7.4752 1.2288 8.64256 2.19136-1.86368-1.51552-4.79232-5.44768-8.00768-11.91936l-90.86976-184.1152c-20.60288-41.6768-69.50912-77.27104-115.6096-83.98848l-203.1616-29.4912c-7.10656-1.04448-11.73504-2.62144-13.78304-3.91168 1.24928 0.79872 3.39968 3.42016 4.7104 7.4752s1.14688 7.49568 0.57344 8.9088c0.86016-2.2528 3.70688-6.2464 8.86784-11.28448l146.98496-143.29856c33.32096-32.48128 52.06016-90.0096 44.17536-135.94624l-34.69312-202.32192c-1.2288-7.08608-1.14688-11.9808-0.53248-14.336-0.36864 1.4336-2.19136 4.28032-5.632 6.79936-3.46112 2.53952-6.79936 3.39968-8.2944 3.31776 2.39616 0.14336 7.08608 1.57696 13.47584 4.93568l181.71904 95.5392c41.14432 21.62688 101.70368 21.64736 142.90944-0.02048z m-24.59648-46.81728c-25.88672 13.59872-67.9936 13.5168-93.696 0l-181.71904-95.51872c-51.67104-27.17696-85.54496-2.31424-75.71456 55.05024l34.69312 202.32192c4.93568 28.81536-8.13056 68.8128-28.95872 89.10848l-146.98496 143.29856c-41.82016 40.77568-28.63104 80.67072 28.91776 89.02656l203.1616 29.51168c28.91776 4.1984 62.93504 29.02016 75.79648 55.07072l90.84928 184.07424c25.86624 52.38784 67.87072 52.16256 93.61408 0l90.86976-184.07424c12.94336-26.2144 47.08352-50.8928 75.79648-55.07072l203.1616-29.51168c57.79456-8.41728 70.59456-48.41472 28.91776-89.02656l-146.98496-143.29856c-20.93056-20.41856-33.87392-60.47744-28.95872-89.10848l34.69312-202.32192c9.85088-57.58976-24.24832-82.1248-75.73504-55.05024l-181.71904 95.51872z"  horiz-adv-x="1024" />

    
    <glyph glyph-name="shanchu" unicode="&#59058;" d="M796.99968 555.8272c-17.26464 0-29.32736-12.06272-29.32736-29.32736v-508.90752c0-17.5104-14.2336-31.76448-31.76448-31.76448H288.09216a31.78496 31.78496 0 0 0-31.76448 31.76448V526.49984c0 17.24416-12.06272 29.32736-29.32736 29.32736s-29.30688-12.0832-29.30688-29.32736v-508.90752a90.50112 90.50112 0 0 1 90.39872-90.39872h447.81568a90.50112 90.50112 0 0 1 90.39872 90.39872V526.49984c0.02048 17.24416-12.06272 29.32736-29.30688 29.32736zM439.54176 160.07168V526.49984c0 17.24416-12.06272 29.32736-29.32736 29.32736s-29.2864-12.0832-29.2864-29.32736v-366.42816c0-17.24416 12.04224-29.32736 29.30688-29.32736s29.30688 12.10368 29.30688 29.32736zM643.09248 160.07168V526.49984c0 17.24416-12.06272 29.32736-29.32736 29.32736-17.24416 0-29.32736-12.06272-29.32736-29.32736v-366.42816c0-17.24416 12.0832-29.32736 29.32736-29.32736 17.28512 0.02048 29.32736 12.10368 29.32736 29.32736zM898.78528 677.94944h-133.55008V750.40768a90.46016 90.46016 0 0 1-90.37824 90.37824H349.16352a90.46016 90.46016 0 0 1-90.37824-90.37824v-72.45824H125.2352c-17.26464 0-29.32736-12.06272-29.32736-29.30688 0-17.26464 12.06272-29.32736 29.32736-29.32736h773.55008c17.26464 0 29.30688 12.04224 29.30688 29.32736-0.02048 17.24416-12.04224 29.30688-29.30688 29.30688zM317.39904 750.40768c0 17.5104 14.25408 31.744 31.76448 31.744h325.69344c17.48992 0 31.76448-14.2336 31.76448-31.744v-72.45824H317.39904V750.40768z"  horiz-adv-x="1024" />

    
    <glyph glyph-name="yidong" unicode="&#59059;" d="M545.25952-76.288h-66.51904c-164.16768 0-297.8816 133.71392-297.8816 297.8816V546.4064c0 164.16768 133.71392 297.8816 297.8816 297.8816h66.51904c164.16768 0 297.8816-133.71392 297.8816-297.8816v-324.8128c0-164.4544-133.71392-297.8816-297.8816-297.8816zM478.74048 765.05088c-120.44288 0-218.66496-98.24256-218.66496-218.66496V221.5936c0-120.4224 98.22208-218.66496 218.66496-218.66496h66.51904c120.4224 0 218.66496 98.24256 218.66496 218.66496V546.4064c0 120.4224-98.24256 218.66496-218.66496 218.66496h-66.51904zM470.79424 684.25728h79.23712v-209.14176h-79.23712V684.25728z"  horiz-adv-x="1024" />

    
    <glyph glyph-name="xianshizuobiao" unicode="&#59060;" d="M245.9648 728.82176c146.92352 147.27168 385.14688 147.27168 532.04992 0 146.944-147.29216 112.7424-386.12992-34.2016-533.4016L512-71.2704 280.1664 195.42016c-146.944 147.27168-181.12512 386.10944-34.2016 533.4016zM512 25.7024l183.48032 218.19392c120.17664 120.5248 154.39872 315.92448 34.2016 436.4288-120.23808 120.5248-315.12576 120.5248-435.34336 0-120.2176-120.50432-86.016-315.904 34.2016-436.4288L512 25.7024z m0 642.12992c-94.45376 0-171.02848-76.75904-171.02848-171.43808s76.57472-171.43808 171.02848-171.43808c94.45376 0 171.02848 76.75904 171.02848 171.43808S606.45376 667.83232 512 667.83232z m0-274.28864c-56.68864 0-102.6048 46.03904-102.6048 102.85056S455.33184 599.2448 512 599.2448s102.62528-46.03904 102.62528-102.85056-45.93664-102.85056-102.62528-102.85056z"  horiz-adv-x="1024" />

    
    <glyph glyph-name="xianluleixingzhuanhuan" unicode="&#59061;" d="M758.82496 416.84992H265.17504c-73.4208 0-132.9152 51.2-132.9152 114.36032 0 63.16032 59.4944 114.3808 132.9152 114.3808h504.48384v-65.37216l198.02112 98.03776-198.02112 98.03776v-65.35168H265.17504c-115.36384 0-208.85504-80.46592-208.85504-179.73248s93.4912-179.73248 208.85504-179.73248h493.64992c73.37984 0 132.9152-51.22048 132.9152-114.3808s-59.53536-114.36032-132.9152-114.36032H256.53248v65.35168l-199.35232-100.82304 199.35232-95.60064V57.344h502.272c115.34336 0 208.85504 80.4864 208.85504 179.73248 0.02048 99.30752-93.4912 179.77344-208.83456 179.77344z"  horiz-adv-x="1024" />

    
    <glyph glyph-name="xianlulianjie" unicode="&#59062;" d="M815.80032 839.68a151.83872 151.83872 0 0 1-151.87968-151.90016c0-30.9248 9.33888-59.65824 25.25184-83.6608L291.88096 206.848a150.91712 150.91712 0 0 1-83.6608 25.27232c-83.92704 0-151.90016-67.9936-151.90016-151.90016s67.97312-151.90016 151.90016-151.90016a151.87968 151.87968 0 0 1 151.90016 151.90016c0 30.9248-9.35936 59.67872-25.2928 83.68128L732.11904 561.152a151.08096 151.08096 0 0 1 83.68128-25.25184 151.83872 151.83872 0 0 1 151.87968 151.87968 151.8592 151.8592 0 0 1-151.87968 151.90016zM208.22016-10.89536a91.21792 91.21792 0 0 0-91.136 91.11552 91.2384 91.2384 0 0 0 91.136 91.136 91.2384 91.2384 0 0 0 91.136-91.136 91.2384 91.2384 0 0 0-91.136-91.11552z m607.58016 607.5392a91.2384 91.2384 0 0 0-91.136 91.136 91.2384 91.2384 0 0 0 91.136 91.136 91.21792 91.21792 0 0 0 91.11552-91.136 91.2384 91.2384 0 0 0-91.11552-91.136z"  horiz-adv-x="1024" />

    
    <glyph glyph-name="changduceju" unicode="&#59063;" d="M702.6688 839.43424L56.58624 193.3312l264.78592-264.78592L967.41376 574.6688 702.6688 839.43424zM167.6288 240.61952l65.72032-65.72032 31.90784 31.86688-65.7408 65.7408 44.27776 44.25728 132.83328-132.83328 31.88736 31.88736-132.83328 132.83328 44.25728 44.27776 65.72032-65.7408 31.88736 31.90784-65.72032 65.72032 44.25728 44.25728 132.85376-132.83328 31.88736 31.88736-132.85376 132.83328 44.27776 44.27776 65.69984-65.7408 31.90784 31.86688-65.72032 65.7408 44.2368 44.27776 132.85376-132.85376 31.86688 31.88736-132.83328 132.83328 44.27776 44.27776 65.7408-65.72032 31.88736 31.86688-65.7408 65.7408 46.2848 46.30528 201.0112-201.0112-582.36928-582.41024-201.0112 201.03168 47.28832 47.28832z"  horiz-adv-x="1024" />

    


  </font>
</defs>
</svg>
